<mxfile host="app.diagrams.net" modified="2024-04-28T19:43:45.929Z" agent="Mozilla/5.0 (Windows NT 10.0; Win64; x64) AppleWebKit/537.36 (KHTML, like Gecko) Chrome/124.0.0.0 Safari/537.36" version="24.3.1" etag="ivtpbiPtATjYCu--9EOE" type="github">
  <diagram name="Page-1" id="jJ6pu6y6MU5TAqv3XTux">
    <mxGraphModel>
      <root>
        <mxCell id="0" />
        <mxCell id="1" parent="0" />
      </root>
    </mxGraphModel>
  </diagram>
</mxfile>
